<svg id="Layer_5" data-name="Layer 5" xmlns="http://www.w3.org/2000/svg" viewBox="0 0 500 500"><defs><style>.cls-1{fill:#00ba51;}</style></defs><path class="cls-1" d="M178,286.47c7.29,10.94,18,15.18,27.15,15.18a25.57,25.57,0,0,0,14.59-4.18,3.34,3.34,0,0,1,1.85-.64,2.11,2.11,0,0,1,.62.09c.41.12.85.25,1.32.41a2.82,2.82,0,0,1,1.23,1.07c8.08,11.5,17.56,13.92,24.09,13.92a28.15,28.15,0,0,0,6.54-.78L222.14,453.75l-20.09-37.67-5.19-9.74-9.18,6.12-40.92,27.28L178,286.47m-5.19-24.6L132.11,461.53l61.12-40.75,32.59,61.13,44.83-191.52s-10.16,11.93-21.76,11.93c-5.28,0-10.85-2.47-15.9-9.67a12.6,12.6,0,0,0-6.31-4.83q-.87-.29-1.65-.51a12.35,12.35,0,0,0-3.4-.48,13.24,13.24,0,0,0-7.58,2.45,16,16,0,0,1-8.86,2.37c-8.64,0-19.9-5.43-24.19-23.67l-8.15-6.11Z"/><path class="cls-1" d="M250.48,25a8.05,8.05,0,0,1,6.2,3c7.68,9.14,16.08,11.06,21.78,11.06a30.63,30.63,0,0,0,13.91-3.57A11.76,11.76,0,0,1,297.54,34c3,0,5.1,2.11,6.33,6.25,2.19,7.33,8.69,19.63,27.66,19.63h.2c7,0,8.56,1.18,8.81,1.41s1.38,1.53,1.43,8.34c.12,14.35,9.07,25.34,22.8,28a6.48,6.48,0,0,1,4.87,3.36c1,2.08.84,4.85-.53,7.6-7,14.05-3.9,29.64,7.81,39.72a8.33,8.33,0,0,1,3.26,6.27,7.62,7.62,0,0,1-3.1,5.77c-11.3,9.34-14.27,22.48-7.93,35.15,1.62,3.26,2.22,5.87,1.69,7.36-.33.9-1.81,3.33-8.6,6.34-10.19,4.52-17.78,17.45-19,26.84-1,7.58-1.88,9.53-2.35,10,0,0-1.07,1-8.14,1.17-14,.26-24.36,7.68-28.38,20.36-2,6.33-5.16,6.33-6.19,6.33a11.84,11.84,0,0,1-4.73-1.21,34.19,34.19,0,0,0-14.37-3.47c-8.33,0-15.77,3.73-22.74,11.41a8.52,8.52,0,0,1-6.13,3.12,7.73,7.73,0,0,1-5.73-2.92c-4.9-5.52-11.17-11.17-20.54-11.17-4.61,0-9.5,1.38-15.85,4.47a10.93,10.93,0,0,1-4.65,1.22c-3.9,0-5.6-3.45-6.34-6.34-3-11.61-15.38-21.07-27.68-21.07l-1,0c-.58,0-1.15,0-1.68,0-3.77,0-6.6-.61-7.58-1.62-.41-.42-1.76-2.34-1.55-8.95.4-13.07-7-23.81-19.37-28-4.1-1.4-6.87-3.31-7.62-5.24-.9-2.33.7-5.84,1.74-7.72,5.76-10.5,2-27.54-7.75-35.06-3.07-2.37-4.84-4.76-4.86-6.57s1.89-4.57,5.12-7.16c9.86-7.93,13.28-26.39,6.91-37.26-2.33-4-2.62-6.65-2.11-7.82s2.87-3,7.77-4.11c11.79-2.68,22-17,20.62-28.94-.62-5.41.4-7,.73-7.41s2.26-2.09,10-2.09c.67,0,1.37,0,2.08,0l.71,0,.71-.08c13.73-1.46,22.26-8.7,25.37-21.51a5.72,5.72,0,0,1,5.93-4.44,9.74,9.74,0,0,1,4.36,1.1A32.58,32.58,0,0,0,222.67,39c8.49,0,16.12-3.87,22.07-11.2A7.31,7.31,0,0,1,250.48,25M250,265.76c61.7,0,111.18-48.67,112.64-110.79v-.38c-.83-60.14-49.45-110.17-108.38-111.52q-1.36,0-2.73,0C189.83,43,140.23,90.1,138.55,150.18c-1.69,60.89,43.94,111.56,103.88,115.34,2.5.16,5,.24,7.52.24M250.48,15A17.29,17.29,0,0,0,237,21.45c-4,5-8.9,7.5-14.31,7.5a22.74,22.74,0,0,1-10.16-2.67,19.65,19.65,0,0,0-8.86-2.17c-7.26,0-13.77,4.36-15.64,12.08-2.73,11.22-10.55,13.27-16.71,13.93-.85,0-1.66,0-2.45,0-16.54,0-22.27,6.7-20.65,20.65.79,6.8-6.15,16.5-12.9,18-15.26,3.47-19.81,13.53-12.08,26.74,3.87,6.6,1.45,19.59-4.55,24.41-11.77,9.46-11.81,20.41-.1,29.45,5.87,4.53,8.51,16.1,5.09,22.32-6.92,12.6-2.58,22.46,11.41,27.24,8.39,2.87,12.88,9.65,12.61,18.27-.45,14.55,4.91,20.88,19.13,20.88.67,0,1.36,0,2.08,0l.56,0c7.75,0,16.14,6.26,18,13.54,2.26,8.84,8.47,13.87,16,13.87a20.65,20.65,0,0,0,9-2.23c4.67-2.27,8.29-3.46,11.48-3.46,4.62,0,8.35,2.49,13.06,7.81a17.62,17.62,0,0,0,13.21,6.28,18.3,18.3,0,0,0,13.53-6.4c5-5.48,9.83-8.13,15.34-8.13a24.62,24.62,0,0,1,10.21,2.56,21.4,21.4,0,0,0,8.89,2.12c7.22,0,13-4.68,15.73-13.31,2.94-9.27,9.93-13.21,19-13.38,15.49-.29,18.26-4.43,20.22-19.94.88-7,7-16.22,13.11-19,13.53-6,18.44-14,11.79-27.31-4.24-8.48-2.34-16.61,5.36-23,9-7.42,9-19.6,0-27.33-8.24-7.09-10.31-17.75-5.38-27.7,5.58-11.24.28-22.95-11.4-25.22-9.1-1.77-14.62-8.63-14.7-18.28-.12-15-5.11-19.66-20.24-19.66h-.2c-8.66,0-15.29-3.14-18.07-12.49-2.6-8.7-8.63-13.39-15.92-13.39a21.55,21.55,0,0,0-9.7,2.53,20.71,20.71,0,0,1-9.38,2.49c-5.19,0-9.94-2.51-14.13-7.49A18.06,18.06,0,0,0,250.48,15ZM250,255.76q-3.4,0-6.89-.22C190.88,252.25,147,208,148.55,150.46,150.07,96,195.72,53,251.48,53c.83,0,1.67,0,2.5,0,55.62,1.28,97.88,48.83,98.61,101.66-1.26,53.78-44.37,101-102.64,101Z"/><path class="cls-1" d="M319.17,291.8l42.26,128.48,6.42,19.5-36.5-23.56-9.08-5.86-5.14,9.51L296,459l-.53,1c-4.35-12.9-8.49-25.2-12.59-37.52-.64-1.91-1.18-4-1.75-6.22-1.18-4.6-2.52-9.82-5.19-14.7-11.06-20.21-6.12-40.9-.88-62.81,1-4.19,2-8.53,3-12.86.6-2.82,1.27-5.61,2-8.56a164.43,164.43,0,0,0,4-20.13c.05-.38.1-.69.15-.94a14.76,14.76,0,0,1,2.24.33l1,.21c7.12,1.52,11.83,2.53,16.13,2.53,7.31,0,11.88-2.78,15.77-7.55m3.72-20.69c-2.89,1.88-4.07,2.22-4.49,3-6.32,11.47-8.44,15.26-15,15.26-3.4,0-8-1-15-2.52a23.07,23.07,0,0,0-4.71-.56c-4.88,0-8.84,2.28-9.7,9.81-1.07,9.35-3.82,18.5-5.79,27.75-5.83,27.43-16.31,54.69-1.06,82.55,3.19,5.82,4.08,12.87,6.22,19.28,6.35,19.08,12.8,38.12,19.94,59.34,11.61-21.47,22-40.69,32.63-60.38l56.9,36.74,2.25-1.2c-20.65-62.77-41.3-125.53-62.19-189Z"/><path class="cls-1" d="M249.9,64.13v10l1.68,0a81.16,81.16,0,0,1,56.61,24.53,82.39,82.39,0,0,1,23.33,58c0,20.76-8.55,40.47-24,55.49a81.8,81.8,0,0,1-57.29,23.4h-.1a82,82,0,0,1-59.85-26.46c-14.08-15.23-21.31-34.68-19.85-53.34l.05-.73-.05-.73c-1.32-19.32,5.88-38.46,20.28-53.89,15.62-16.73,37.2-26.33,59.2-26.33v-10m0,0c-49.34,0-92.76,42.74-89.45,90.9-3.6,46,37.71,90.52,89.66,90.58h.11c49.69,0,91.24-40.31,91.3-88.87.07-51.1-40-91.48-89.72-92.59l-1.9,0Z"/></svg>