<svg id="Layer_5" data-name="Layer 5" xmlns="http://www.w3.org/2000/svg" viewBox="0 0 500 500"><defs><style>.cls-1{fill:#00ba51;}</style></defs><path class="cls-1" d="M178,286.47c7.29,10.94,18,15.18,27.15,15.18a25.57,25.57,0,0,0,14.59-4.18,3.34,3.34,0,0,1,1.85-.64,2.11,2.11,0,0,1,.62.09c.41.12.85.25,1.32.41a2.82,2.82,0,0,1,1.23,1.07c8.08,11.5,17.56,13.92,24.09,13.92a28.15,28.15,0,0,0,6.54-.78L222.14,453.75l-20.09-37.67-5.19-9.74-9.18,6.12-40.92,27.28L178,286.47m-5.19-24.6L132.11,461.53l61.12-40.75,32.59,61.13,44.83-191.52s-10.16,11.93-21.76,11.93c-5.28,0-10.85-2.47-15.9-9.67a12.6,12.6,0,0,0-6.31-4.83q-.87-.29-1.65-.51a12.35,12.35,0,0,0-3.4-.48,13.24,13.24,0,0,0-7.58,2.45,16,16,0,0,1-8.86,2.37c-8.64,0-19.9-5.43-24.19-23.67l-8.15-6.11Z"/><path class="cls-1" d="M171.3,50.12c6.16-.66,14-2.71,16.71-13.93,2.62-10.82,14.34-15,24.5-9.91,9.51,4.79,18,3.11,24.47-4.83a17.63,17.63,0,0,1,27.35.11c6.6,7.85,14.57,9.55,23.51,5,11.32-5.75,21.93-1.5,25.62,10.86,2.79,9.37,9.44,12.51,18.14,12.49,15.23,0,20.25,4.63,20.37,19.66.08,9.65,5.6,16.51,14.7,18.28,11.68,2.27,17,14,11.4,25.22-4.93,10-2.86,20.61,5.38,27.7,9,7.73,9,19.91,0,27.33-7.7,6.36-9.6,14.49-5.36,23,6.65,13.3,1.74,21.3-11.79,27.31-6.15,2.73-12.23,12-13.11,19-2,15.51-4.73,19.65-20.22,19.94-9.1.17-16.09,4.11-19,13.38-3.79,12-13.4,16.32-24.62,11.19-10.21-4.67-17.73-3-25.55,5.57s-19.26,8.54-26.74.12c-8-9-13.12-9.9-24.54-4.35s-21.94.55-25.05-11.64c-1.9-7.46-10.65-13.84-18.55-13.52-15.78.62-21.68-5.6-21.21-20.84.27-8.62-4.22-15.4-12.61-18.27-14-4.78-18.33-14.64-11.41-27.24,3.42-6.22.78-17.79-5.09-22.32-11.71-9-11.67-20,.1-29.45,6-4.82,8.42-17.81,4.55-24.41-7.73-13.21-3.18-23.27,12.08-26.74,6.75-1.53,13.69-11.23,12.9-18C146.51,56.11,152.87,49.45,171.3,50.12ZM352.59,154.73c-.73-52.83-43-100.38-98.61-101.66-56.89-1.31-103.89,42.08-105.43,97.39C147,208,190.88,252.25,243.06,255.54,304.78,259.44,351.28,210.61,352.59,154.73Z"/><path class="cls-1" d="M319.17,291.8l42.26,128.48,6.42,19.5-36.5-23.56-9.08-5.86-5.14,9.51L296,459l-.53,1c-4.35-12.9-8.49-25.2-12.59-37.52-.64-1.91-1.18-4-1.75-6.22-1.18-4.6-2.52-9.82-5.19-14.7-11.06-20.21-6.12-40.9-.88-62.81,1-4.19,2-8.53,3-12.86.6-2.82,1.27-5.61,2-8.56a164.43,164.43,0,0,0,4-20.13c.05-.38.1-.69.15-.94a14.76,14.76,0,0,1,2.24.33l1,.21c7.12,1.52,11.83,2.53,16.13,2.53,7.31,0,11.88-2.78,15.77-7.55m3.72-20.69c-2.89,1.88-4.07,2.22-4.49,3-6.32,11.47-8.44,15.26-15,15.26-3.4,0-8-1-15-2.52a23.07,23.07,0,0,0-4.71-.56c-4.88,0-8.84,2.28-9.7,9.81-1.07,9.35-3.82,18.5-5.79,27.75-5.83,27.43-16.31,54.69-1.06,82.55,3.19,5.82,4.08,12.87,6.22,19.28,6.35,19.08,12.8,38.12,19.94,59.34,11.61-21.47,22-40.69,32.63-60.38l56.9,36.74,2.25-1.2c-20.65-62.77-41.3-125.53-62.19-189Z"/><path class="cls-1" d="M249.9,64.13v10l1.68,0a81.16,81.16,0,0,1,56.61,24.53,82.39,82.39,0,0,1,23.33,58c0,20.76-8.55,40.47-24,55.49a81.8,81.8,0,0,1-57.29,23.4h-.1a82,82,0,0,1-59.85-26.46c-14.08-15.23-21.31-34.68-19.85-53.34l.05-.73-.05-.73c-1.32-19.32,5.88-38.46,20.28-53.89,15.62-16.73,37.2-26.33,59.2-26.33v-10m0,0c-49.34,0-92.76,42.74-89.45,90.9-3.6,46,37.71,90.52,89.66,90.58h.11c49.69,0,91.24-40.31,91.3-88.87.07-51.1-40-91.48-89.72-92.59l-1.9,0Z"/></svg>