<svg id="Layer_4" data-name="Layer 4" xmlns="http://www.w3.org/2000/svg" viewBox="0 0 500 500"><defs><style>.cls-1{fill:#028236;}</style></defs><path class="cls-1" d="M52,219.55l5,6.18,8.63,10.7c-4.87,3.46-7,9.12-6.77,17.36,1.75,57.39,24.53,105.35,67.71,142.53a182.83,182.83,0,0,0,56.85,33.16l-2.85,2.36c-4.09,3.36-8.82,8.11-9.19,15a15.85,15.85,0,0,0,.47,4.73l-1.28-.53c-32.2-13.46-59.22-31.94-80.3-54.91-21.36-23.25-37.2-51.75-47.1-84.68-4.22-14.06-5.87-28.93-7.61-44.68-.5-4.47-1-9.1-1.59-13.66-.39-3.14-1.08-8.66-4.35-13.27l6.65-6L52,219.55M53.1,205,14.2,240.27c.24.64.48,1.28.71,1.93,7.31,1.05,8.3,5.8,9.1,12.15,2.53,20.09,3.77,40.75,9.54,60,20.91,69.58,66.21,118,133.12,145.94,10.33,4.32,21.38,6.91,32.1,10.3A105.53,105.53,0,0,0,186,455.64c-6.45-6.58-6.25-10.18.91-16.08,5.24-4.32,10.46-8.67,16.49-13.66-4.49-1.59-7.42-2.7-10.39-3.67a173.48,173.48,0,0,1-59.94-33.49c-41.31-35.58-62.57-80.8-64.23-135.25-.25-8.12,1.88-10.25,10.14-11.09a32.56,32.56,0,0,0,3.63-.83L53.1,205Z"/><path class="cls-1" d="M327.09,50c.46.17.91.36,1.36.54a225.8,225.8,0,0,1,59.07,35.11,216.16,216.16,0,0,1,77.14,160.22c.09,3.64.26,10.1,4.09,15.42L446.17,281,433.4,265.18c4.66-3.52,7.26-9.16,7.06-16.15-.85-30.79-7.35-58-19.88-83.11C401.69,128,372.72,99,334.47,79.61A189,189,0,0,0,316,71.7c1.15-1,2.31-2,3.46-3,3.35-2.87,7.84-7.48,8.13-14.28a15.64,15.64,0,0,0-.45-4.5m-26.9-18.87-1.13,2.16c2.37,2,4.79,4,7.1,6.15,2.5,2.28,4.95,4.62,7.32,7,5.6,5.73,5.46,9.52-.59,14.72-5.27,4.53-10.64,9-16.43,13.82,11.85,4.74,23.1,8.3,33.5,13.56,36.12,18.27,63.51,45.39,81.67,81.84,12.43,24.94,18.07,51.31,18.84,78.93.17,6.4-3.16,9.55-9.44,9.85-1.4.07-2.8.26-4.95.46l28.83,35.78,40.89-35.78c-10.81-1.49-11-7.6-11.15-14a222.12,222.12,0,0,0-33.76-113.37C414.69,90,378.05,60,332.24,41.25c-10.33-4.24-21.35-6.82-32.05-10.16Z"/><path class="cls-1" d="M427.11,317.14l2.95,3.47c1.73,2,7,8.15,15,8.15a16.33,16.33,0,0,0,3.83-.47c-.18.45-.36.91-.55,1.36a225.52,225.52,0,0,1-35.11,59.07A216.21,216.21,0,0,1,253,465.85c-3.64.1-10.1.26-15.42,4.1l-19.77-22.59,1.79-1.43,14.07-11.35c3.4,4.5,8.75,7.09,15.37,7.09h.76c30.79-.85,58-7.36,83.11-19.88,37.92-18.9,67-47.87,86.31-86.11a188.26,188.26,0,0,0,7.92-18.53m-3.29-19.48c-4.73,11.85-8.3,23.1-13.56,33.5-18.27,36.11-45.38,63.51-81.84,81.67-24.94,12.43-51.31,18.07-78.93,18.83H249c-6.07,0-9.08-3.33-9.37-9.44-.07-1.4-.26-2.8-.46-5L203.4,446.11,239.19,487c1.48-10.82,7.59-11,14-11.15A222.24,222.24,0,0,0,366.6,442.09c42.23-26.2,72.2-62.85,91-108.65,4.23-10.34,6.81-21.35,10.15-32.05l-2.15-1.13c-2.05,2.37-4,4.79-6.16,7.1-2.28,2.5-4.61,4.95-7,7.31-2.78,2.72-5.11,4.09-7.35,4.09s-4.7-1.55-7.38-4.67c-4.53-5.27-8.95-10.64-13.82-16.43Z"/><path class="cls-1" d="M261.41,30.05,270,39.91l11.15,12.73L265.32,65.42c-3.39-4.5-8.75-7.09-15.37-7.09h-.76c-30.79.85-58,7.36-83.11,19.88-37.92,18.9-67,47.87-86.31,86.11a188.26,188.26,0,0,0-7.92,18.53l-2.95-3.47c-1.73-2-7-8.15-15-8.15a16.33,16.33,0,0,0-3.83.47c.18-.45.36-.91.55-1.36a225.52,225.52,0,0,1,35.11-59.07A216.21,216.21,0,0,1,246,34.15c3.64-.1,10.1-.26,15.42-4.1m-1.64-17c-1.48,10.82-7.59,11-14,11.15A222.24,222.24,0,0,0,132.36,57.91c-42.23,26.2-72.2,62.85-91,108.65-4.23,10.34-6.81,21.35-10.15,32.05l2.15,1.13c2.05-2.37,4-4.79,6.16-7.1,2.28-2.5,4.61-4.95,7-7.31,2.78-2.72,5.11-4.09,7.35-4.09,2.39,0,4.7,1.55,7.38,4.67,4.53,5.27,8.95,10.64,13.82,16.43,4.73-11.85,8.3-23.1,13.56-33.5,18.27-36.11,45.38-63.51,81.84-81.67,24.94-12.43,51.31-18.07,78.93-18.83H250c6.07,0,9.08,3.33,9.37,9.44.07,1.4.26,2.8.46,5l35.78-28.84L259.77,13Z"/><path class="cls-1" d="M320.33,348.24c-4.53-2.72-9.35-5.06-13.52-8.25s-7.22-4-12-1.09-10.64,5-16.22,6.69c-3.68,1.15-6,2.55-6.08,6.74a33.92,33.92,0,0,1-1.4,8.66c-.82,2.75-1.81,5.73-3.62,7.83-6.45,7.46-30.39,7.36-36.24-.45-2.4-3.19-3.58-7.79-4-11.89-.61-6.25-2.26-10.25-9.29-11.71-5.4-1.11-10.23-4.74-15.56-6.47a13.09,13.09,0,0,0-8.28.67c-2.84,1.16-5.09,3.71-7.75,5.39-6.67,4.2-13.33,3.54-19.26-1.74-.84-.75-1.63-1.55-2.46-2.33-11.36-10.61-17.8-16.85-3.23-34.19,2.39-2.85,2.45-5.16.66-8.46-2.77-5.15-5.55-10.52-6.88-16.14-1.42-5.95-4.58-7.72-10.15-8.47-16.34-2.18-18.71-5.21-18.75-21.92,0-2.26-.06-4.52,0-6.78.36-8.92,4.55-14.61,13.25-15.1,9.57-.53,15.62-3.67,17.1-13.79a19.16,19.16,0,0,1,3.73-8.65c4.65-5.92,2.25-10.21-1.74-15.26-8.31-10.53-7.53-17,2.14-26.47,1.93-1.9,3.78-3.89,5.75-5.74,6.51-6.11,14-7.32,20.7-1.36,7.48,6.69,14.25,7.86,22.37,2a13.89,13.89,0,0,1,6.17-2.68c9.11-1,11.08-6.82,11.81-14.82.94-10.4,6.13-14.46,16.62-14.78,1.35,0,2.71,0,4.07,0,18.54,0,20.72,1.63,23.83,19.86.81,4.75,2.43,7.37,7.47,8.71a81,81,0,0,1,16.76,7.15c3.28,1.75,5.63,2,8.44-.56a58,58,0,0,1,7.1-5.2c7.27-4.84,13.95-4.35,20.34,1.46,1,.91,1.93,1.89,2.89,2.85,13.92,13.8,14.32,16.9,2.9,32.65-2.65,3.67-2.75,6.32-.6,10.29a96.36,96.36,0,0,1,7.13,17.52c1.14,3.68,3,4.85,6.58,5.44,20.35,3.42,21.81,5.26,21.59,25.78-.14,13.36-3.47,17.58-16.62,19.06-7,.78-11.65,2.77-12.93,10.52A29.46,29.46,0,0,1,338.26,295c-4,5.61-2.08,9.58,1.52,14.34,9,11.87,8.42,16.86-2.06,27.43C328.72,345.82,326.64,347.11,320.33,348.24Zm-71.21-58.5c29-.66,47.88-31.18,34.66-56.35-9.16-17.45-28.85-25.34-47.16-18.91s-28.73,25.41-24.48,45.07c1,4.7,2.34,9-1.09,13.51-.82,1.09.93,5,2.45,6.76,1.68,2,5.24,4.82,6.61,4.21,5.15-2.3,9-.15,13.46,1.61C238.52,287.59,243.92,288.42,249.12,289.74Z"/></svg>