<svg id="Layer_3" data-name="Layer 3" xmlns="http://www.w3.org/2000/svg" viewBox="0 0 500 500"><defs><style>.cls-1{fill:#028236;}</style></defs><path class="cls-1" d="M250,13h.59a237,237,0,1,1-1,474h-.34C118.54,486.82,12.34,380.35,12.43,249.67,12.53,119.18,119.09,13,250,13m-.07,470.92h.45c129.26-.24,234.27-105.22,234.09-234C484.25,121,379,16.06,249.79,16.06h-.32c-62.28.08-121,24.58-165.22,69S15.67,188.17,15.79,250.42c.26,128.75,105.28,233.5,234.11,233.5M250,8C116.28,8,7.53,116.29,7.43,249.67S115.83,491.82,249.18,492h.35c134.58,0,243-107.91,243-242.1C492.65,116.42,384.51,8.32,250.57,8Zm-.07,470.92c-125.8,0-228.85-102.73-229.11-228.51C20.54,124.46,123.47,21.23,249.48,21.06h.31c126.46,0,229.46,102.62,229.65,228.87.18,125.68-102.94,228.75-229.1,229Z"/><path class="cls-1" d="M396.86,220.66c-24.74-22.48-48.61-14.45-72.48-3.22-.4-.6-1-1.12-.87-1.35,11.19-26.49,38.19-39,65-29.39,9.5,3.39,18.46,8.33,27.55,12.82,7.27,3.6,14.1,8.21,21.59,11.21s15.45,4.49,23.41,6.7c.6,8.09-3.29,14.57-13,16.95-13.28,3.24-27,4.57-40.37,7.52-14.55,3.22-28.88,7.39-43.33,11-8.83,2.24-17.65,4.56-26.57,6.4-13.39,2.75-24.06-2.54-30.2-14a201.71,201.71,0,0,1-15.3-37.06c-3.31-11.07-4-22.93-5.91-34.43a19.2,19.2,0,0,0-2-6.37c-14.64,62.57-53.28,96.77-117.48,100.7,1.84-.66,3.66-1.35,5.51-2s3.87-1.22,5.78-1.91c44.88-16.14,73.55-48.08,90.14-92,9-23.87,9.88-49.16,13.53-74,.39-2.64.71-5.29,1.14-8.54,7,3.48,10.37,7.26,10.12,15-.91,27.61-3.54,55.43,4,82.59,2.55,9.22,5.54,18.68,10.34,26.84,14.75,25.06,44,32.16,71.17,18C384.3,229.16,389.61,225.25,396.86,220.66Z"/><path class="cls-1" d="M67.49,195.42c.85,9.25.8,18.7,2.76,27.72,3.67,16.94,13.66,24.84,30.84,26.52,13.83,1.36,27.42,1.15,40.13-5.39,8.14-4.19,12.81-11,12.59-20.2-.79-33.48-1.4-67-3.16-100.39-.43-8.24-4.19-16.6-7.76-24.29-5.07-10.92-.69-21.35,13.77-28.31,4.27,6,8.9,12,12.8,18.48,1,1.65-.19,4.73-.58,7.12-.91,5.66-2.73,11.3-2.79,17-.38,33.51-.78,67-.34,100.54.35,27.52-14.54,42.68-38.85,50.64-16.52,5.41-33.3,9.72-50.56,2.59-15.07-6.23-19.88-13.21-18.05-29.15C60,223.77,62.81,209.42,65.14,195Z"/><path class="cls-1" d="M107.88,350.31V379c-11.24,2.54-11.71,2.19-11.72-8.08q0-24.75,0-49.49c0-9.85,0-9.85,11.31-8.57v27.57h35.29c0-6.06,0-12.26,0-18.46,0-10.11,0-10.11,10.71-9.33v66.48c-9.91,2.58-10.71,2-10.72-8.21,0-5.08.5-10.23-.25-15.19-.31-2-3.28-5-5.17-5.12C128,350,118.64,350.31,107.88,350.31Z"/><path class="cls-1" d="M242,198.15c-7.58-9.22-14.86-19.64-23.72-28.47-11.81-11.77-24.83-22.32-37.38-33.34-4.18-3.68-3.2-16.94,1.73-19.25,1.33-.63,3.43-.07,5,.42C221.68,127.82,245.66,164.28,242,198.15Z"/><path class="cls-1" d="M231.58,379.09c-8.77,2.81-13.89,1-15.51-7.62-1.33-7.06-5.53-10.35-12.94-9a30.46,30.46,0,0,1-5.32,0c-13.8,0-14-.08-19.07,13-3,7.72-8.31,4-14.23,4.12,5.57-13.74,10.77-26.58,16-39.42,3.24-8,6.17-16.13,9.93-23.87,1-2,4.5-3.8,6.93-3.9,2.78-.11,7.4,1,8.2,2.91C214.5,336.27,222.86,357.46,231.58,379.09Zm-32.77-52.9-2-.05c-3.21,8.8-6.42,17.61-9.76,26.8h22.05C205.42,343.35,202.11,334.77,198.81,326.19Z"/><path class="cls-1" d="M354.94,379.09c-11.43,2.31-12.22,2.3-15.49-8.06-2.11-6.66-5.26-9.87-12.36-8.56a34.25,34.25,0,0,1-6.08,0c-13.94,0-13.94,0-19.16,12.85-2.24,5.51-3.23,5.81-13.72,3.8q9.63-24,19.19-47.84c1.7-4.23,3.67-8.37,5.18-12.67,1.6-4.54,3.91-6.83,9.34-6.73,5.15.1,6.9,2.44,8.56,6.6C338.42,338.72,346.69,358.82,354.94,379.09ZM310.17,353H332.3l-11-29.16C317.19,334.54,313.84,343.36,310.17,353Z"/><path class="cls-1" d="M281.18,379.78H242.59V313.11c10.71-1.89,11.07-1.65,11.1,8,0,13.68,0,27.35,0,41,0,2.71.23,5.42.4,9,7.42,0,14.2.28,21-.07C281.48,370.72,283.44,373.18,281.18,379.78Z"/><path class="cls-1" d="M376.58,312.75V370.8h28.24c.24,3.29.42,5.68.64,8.75h-39.9c0-5.54,0-11,0-16.46q0-20.91,0-41.8C365.58,311.71,365.6,311.71,376.58,312.75Z"/></svg>