<svg id="Layer_2" data-name="Layer 2" xmlns="http://www.w3.org/2000/svg" viewBox="0 0 500 500"><defs><style>.cls-1{fill:#00ba51;}</style></defs><path class="cls-1" d="M249.77,13h.78A236.88,236.88,0,0,1,487.13,251.25C486.8,381.24,380.37,487,249.87,487h-1A237.08,237.08,0,0,1,82.52,82,236,236,0,0,1,249.77,13M191.84,118H308.13l-1.59-6.24-.54-2.09c-7-27.5-13.67-53.48-30.72-75.9C267.36,23.4,258.4,17.9,249.36,17.9c-6.55,0-16.22,3-25.12,17C216,48,210,62.56,204.23,76.68q-1.74,4.27-3.5,8.52C198.31,91,197,97,195.52,103.29c-.63,2.76-1.28,5.63-2,8.48L191.84,118m157.41.43,12.09,0,12.52,0h7l-2.27-6.62c-10-29.17-53.17-78.38-92.34-86.6l-11.79-2.47L281,32.83c17.2,26.45,25.34,54.93,30.5,76.8,1,4.22,6.43,8.47,11,8.58,9.73.23,19.41.26,26.75.26m-229.87-.06h18.49l11.43,0c8.64,0,18.88,0,29.38-.27,4.5-.09,8.6-5.21,9.57-8.83,7.13-26.74,14.82-52.67,30.26-75.91l6.12-9.21-11,1.49c-33.74,4.59-81.27,53.2-92.12,86.13l-2.17,6.57m293,0,8.62,0,10.27,0h10.24l-6.3-8.08c-25.81-33.1-55.63-56.39-91.15-71.19L319.78,29l18.9,18.33A249.23,249.23,0,0,1,386.47,112a12.68,12.68,0,0,0,9.87,6.21c5.84.19,11.65.22,16.06.22m-350,0h8c3.31,0,6.51,0,9.61,0s5.8,0,8.61,0c4.65,0,8.43.07,11.89.21.33,0,.65,0,1,0,8.08,0,11.48-4.73,13.54-8.85a211.43,211.43,0,0,1,42.18-57.39,23.42,23.42,0,0,0,3-3.82c.44-.65.9-1.33,1.45-2.07l9.18-12.53L156,38.76c-29.79,9.72-78.66,49-90.16,72.51l-3.52,7.2m293.92,5.06c-3.29,0-6.66-.07-9.92-.14s-6.74-.14-10.15-.14H316.64l.49,5.45,4.62,51.2,5.65,62.62.41,4.55H411l.42-4.54c2.19-23.9-8.1-75.33-18.41-103.64-4-11.06-10.44-16-20.78-16-1.1,0-2.28.06-3.51.16-3.66.33-7.63.48-12.48.48M17.43,247.19H82.06l.13-4.87c1-36.83,8.39-73.58,22.56-112.35l2.45-6.72h-7.15c-3.8,0-7.43,0-10.94.07-3.33,0-6.47.06-9.58.06-5.09,0-9.22-.09-13-.27l-1.28,0c-7,0-11.83,2.93-15.65,9.51a239.74,239.74,0,0,0-29.06,81.62c-1,6.27-1.49,12.67-1.94,18.87-.2,2.83-.41,5.76-.68,8.65l-.49,5.46M88,247h84.24l.4-4.56,2.52-28.53,7.49-85.17.48-5.44h-5.46l-14.52,0c-4.93,0-9.89,0-14.88,0-9.34,0-16.93-.06-23.87-.19h-.49c-7.07,0-11.47,3.06-14.28,9.92A299.43,299.43,0,0,0,88,232.88c-.1,2.11-.07,4.22-.05,6.25,0,.93,0,1.87,0,2.82v5m93.17.17h136.6L319,244c.16-.4.31-.72.45-1a7.08,7.08,0,0,0,.87-3.81l-1.17-13.4c-2.65-30.37-5.39-61.77-8.5-92.63-.52-5.23-7.87-9.56-12.39-9.61-20-.22-40.24-.23-59.85-.24-12,0-24.44,0-36.66-.08h-.17c-2.92,0-11.82,0-12.79,10.79-1.74,19.27-3.56,38.85-5.33,57.79-1.38,14.89-2.81,30.29-4.2,45.44A12.42,12.42,0,0,0,180,242c.13.44.25.85.33,1.23l.86,3.93m236.87.06h63.69l-.11-5.11c-.89-40.19-12-77.32-34.05-113.51-2-3.26-6.34-5.09-9.43-5.14-7.06-.14-14.09-.16-19.42-.16l-9.34,0H391.75l2.86,6.91c13.87,33.55,21.24,69.2,23.22,112.21l.22,4.77M393.69,376.41h6.71c3.43,0,6.81,0,10.07-.08s6.27-.08,9.33-.08c4.79,0,8.69.1,12.28.3.59,0,1.17.05,1.73.05,7.86,0,13.24-3.35,17.43-10.85a241.29,241.29,0,0,0,26.55-70.86A251.81,251.81,0,0,0,481,269.68c.36-3.85.74-7.82,1.19-11.8l.64-5.57h-5.6c-5.08,0-10,0-14.69.06-4.52,0-8.79.06-13,.06-7.18,0-13-.09-18.33-.28l-1,0c-11.6,0-12.61,8.72-13.15,13.41-2.41,20.74-4.9,41-8.88,61.33-1.86,9.5-4.88,18.88-8.08,28.81-1.49,4.61-3,9.38-4.49,14.3l-1.91,6.43m-191.54,0h.35c10.74,0,22.56-.07,37.19-.07h43.66c11.37,0,18.23,0,23-4.05s5.85-10.88,7.29-22.52c2.59-21.06,4.38-42.53,6.11-63.29.74-8.88,1.51-18.07,2.33-27.09l.37-4.14-4-1.12-2.14-.6-.25-.07a7,7,0,0,0-3.44-1l-40.28-.09c-26.8,0-54.51-.09-81.76-.23h-.11c-3.84,0-6.8,1.11-8.78,3.29-2.73,3-2.7,7-2.44,9.68q1.26,13.29,2.54,26.59c2.32,24.17,4.72,49.16,7,73.75,1,10.92,10,10.92,13.42,10.92m113.78-.13h5.57l12.53,0h12.56c9.84,0,21.5,0,33.45-.26,4.62-.09,8.4-5.09,9.7-8.22,3.25-7.83,6.05-15.51,8.31-22.83a308.77,308.77,0,0,0,14.13-87.62l.08-5.08H378.71c-13,0-28.26,0-43.39.33-5.29.1-9.23,7.55-9.53,11.42-.45,5.8-.62,11.66-.8,17.33-.19,6.35-.39,12.9-1,19.24-1.49,16.19-3.26,32.09-5.15,48.94-.77,6.9-1.57,14-2.34,21.2l-.6,5.54m-162.53.09h29.68l-.47-5.43-4.36-49.83-5.57-63.67-.4-4.56H90.44l-1.14,3.43c-.11.35-.24.68-.38,1a9.19,9.19,0,0,0-.85,3.71,282.79,282.79,0,0,0,22.82,108.15c1.42,3.34,5.66,6.94,9.7,7,11.76.18,23.19.2,32.81.2m-72.84,0,9.45,0,10.25,0h7.29l-2.62-6.8A344.6,344.6,0,0,1,82,257.79l-.2-4.8H19.22l-.37,4.61c-2.4,30,16.08,92.71,33.51,113.66,2,2.33,5.82,4.89,9.72,5,6.77.17,13.43.19,18.48.19m242.89,93,19.85-8.4c37.32-15.82,67.29-39.18,91.64-71.44l6-8H431c-3.71,0-7.17,0-10.51,0-3,0-5.94,0-8.78,0-4.74,0-8.41-.06-11.91-.19l-.89,0c-8.36,0-12,5-14.23,9.38a208.16,208.16,0,0,1-42.56,57.2,36.88,36.88,0,0,0-3.31,3.68c-.39.48-.78,1-1.19,1.43l-14.12,16.28m-99.29,9.11-6.95-11.78c-14.16-24-22-49.86-28.4-74.24-.85-3.24-4.57-10.42-10.07-10.58-10.3-.32-20.41-.37-29-.37l-12.2,0-13.23,0h-8.48l4.11,7.42c25.18,45.49,53.33,71.7,91.27,85l12.9,4.52m-46.16-7-14.87-17c-3.23-3.68-6.4-7.17-9.46-10.53-6.61-7.25-12.84-14.1-18.2-21.39-5.19-7.06-9.84-14.85-14.33-22.39-2.54-4.26-5.17-8.67-7.89-12.94-1.67-2.62-5.17-5.49-8.9-5.59-4.88-.13-10-.19-17.1-.19l-8.52,0-10,0H58.47l6.31,8.08c26,33.28,55.42,56.41,92.57,72.78L178,471.6m98.29,5.1,10.64-2.18c15.44-3.18,34.68-14.75,52.8-31.75,18-16.86,32.27-36.63,39.27-54.26l2.71-6.84h-7.36l-12.53,0-12,0c-8.47,0-18.51,0-28.83.36-6.1.19-9.56,9.15-9.93,10.17-3.54,9.67-7,19.53-10.39,29.06-3.72,10.52-7.56,21.4-11.48,32a53.34,53.34,0,0,1-4.61,8.75c-1,1.64-2,3.34-3,5.2l-5.26,9.5m-26.45,5.09c7.86,0,15.55-4.11,22.22-11.89,18.79-21.88,25.93-49,32.83-75.28.51-1.93,1-3.86,1.53-5.78l1.66-6.29H190.13l2.25,6.62c1.85,5.41,3.6,10.76,5.3,15.92,4,12.21,7.78,23.73,12.43,35.08A118.73,118.73,0,0,0,227,468.92c6.72,8.42,14.61,12.87,22.82,12.87M249.77,8A241.63,241.63,0,0,0,7.88,249.12c-.57,133.7,107.24,242.34,241,242.88h1c133.27,0,241.92-107.86,242.26-240.73C492.46,116.76,384.9,8.44,250.57,8ZM198.32,113c2.43-9.22,3.72-18,7-25.92,7-16.83,13.43-34.27,23.11-49.56,6.25-9.85,13.47-14.66,20.9-14.66s14.93,4.72,21.94,13.94C288.17,59,294.63,85.44,301.69,113Zm150.93.43c-9,0-17.8,0-26.63-.26-2.18,0-5.74-2.71-6.22-4.73-6.47-27.37-15.21-53.82-31.18-78.38C322,37.82,364.13,85,373.86,113.43c-8.37,0-16.54,0-24.61,0ZM214.35,30.66c-15.92,24-23.76,50.53-30.93,77.4-.55,2.06-3.15,5.08-4.85,5.12-9.73.21-19.47.26-29.27.26-7.62,0-15.28,0-23,0,10.38-31.51,56.59-78.47,88.05-82.75ZM157.59,43.51c-1.73,2.35-2.62,4-3.91,5.26a215.15,215.15,0,0,0-43.17,58.75c-2.1,4.19-4.51,6.08-9.07,6.08h-.75c-4-.17-8-.22-12.1-.22-5.81,0-11.8.1-18.22.1,10.93-22.31,59.1-60.79,87.22-70ZM412.4,113.44c-5.53,0-10.71,0-15.89-.2a7.79,7.79,0,0,1-5.6-3.51,252.41,252.41,0,0,0-48.75-66c35.27,14.69,64,37.49,89.13,69.65-6.93,0-13.1,0-18.89,0Zm-56.12,15.09c4.32,0,8.63-.12,12.92-.49,1.08-.1,2.1-.15,3.07-.15,8.35,0,12.78,3.64,16.08,12.72,10.36,28.42,20.22,78.72,18.13,101.46h-74.1c-3.4-37.7-6.77-75-10.27-113.82h14.12c6.67,0,13.37.28,20,.28ZM22.9,242.19c.85-9.3,1.11-18.33,2.58-27.16A233.38,233.38,0,0,1,53.92,135.1c2.82-4.84,5.95-7,11.33-7l1,0c4.37.21,8.74.27,13.24.27,6.47,0,13.19-.13,20.52-.13-13.6,37.2-21.78,74.52-22.86,113.94ZM93,242c0-3-.11-5.94,0-8.84a293,293,0,0,1,21.24-98.18c2-4.91,4.47-6.81,9.65-6.81h.4c8,.15,16,.19,24,.19,9.92,0,19.75-.06,29.4-.06-3.37,38.34-6.66,75.7-10,113.7Zm92.2.17c-.37-1.67-1.05-3.11-.93-4.48,3.14-34.41,6.42-68.81,9.53-103.23.47-5.24,3.22-6.24,7.81-6.24h.15c32.16.15,64.32,0,96.47.32,2.62,0,7.28,3.1,7.48,5.11,3.55,35.29,6.57,70.63,9.66,106,0,.53-.41,1.1-1,2.55Zm237.62.06c-1.79-38.79-8.17-76.56-23.6-113.89,6.81,0,13.25,0,19.5,0,6.58,0,12.95,0,19.32.15a7.27,7.27,0,0,1,5.26,2.75c20.56,33.8,32.41,70.23,33.32,111ZM400.4,371.41c4.6-15.47,9.87-29.28,12.68-43.58,4-20.38,6.54-41.07,8.93-61.71.71-6.09,1.82-9,8.19-9l.84,0c6.11.22,12.23.28,18.51.28,8.78,0,17.87-.12,27.72-.12-1.47,12.74-2,24.85-4.38,36.61a235.7,235.7,0,0,1-26,69.39c-3.24,5.79-6.89,8.29-13.07,8.29-.47,0-.95,0-1.44,0-4.17-.24-8.34-.31-12.57-.31-6.29,0-12.7.16-19.4.16Zm-198.25,0c-4.6,0-7.91-.52-8.44-6.38-3.05-33.46-6.32-66.91-9.51-100.36-.44-4.61.69-7.49,6.25-7.49h.08c40.69.2,81.37.21,122.06.32a5,5,0,0,1,1.64.66l2.85.8c-2.73,30.08-4.73,60.25-8.43,90.21-2.71,22-3.69,22.19-25.3,22.19h-1l-42.64,0q-18.62,0-37.21.07Zm144.44-.1c-8.37,0-16.73,0-25.09,0,2.61-24.13,5.38-47.15,7.5-70.23,1.11-12.16.84-24.45,1.78-36.64.19-2.47,3-6.77,4.64-6.8,14.32-.27,28.65-.33,43.29-.33l28.47,0a303.58,303.58,0,0,1-13.91,86.23c-2.34,7.58-5.1,15.05-8.15,22.38-.88,2.14-3.38,5.11-5.18,5.14-11.12.21-22.23.26-33.35.26Zm-193.19.06c-10.82,0-21.78,0-32.74-.2-1.78,0-4.41-2.17-5.17-4A276.68,276.68,0,0,1,93.07,261a12.24,12.24,0,0,1,1-3.11H167.7c3.3,37.7,6.57,75.08,9.93,113.49l-24.23,0Zm-72.84,0c-6.24,0-12.3,0-18.36-.18a9.21,9.21,0,0,1-6-3.19c-16.63-20-34.68-81.25-32.38-110.07H77a350.64,350.64,0,0,0,23.22,113.4c-6.88,0-13.38,0-19.7,0Zm260.79,85a62.42,62.42,0,0,1,4.14-4.74,211.91,211.91,0,0,0,43.59-58.56c2.33-4.56,4.87-6.66,9.78-6.66l.7,0c4,.15,8,.19,12.1.19,5.95,0,12.22-.09,19.29-.09-24.56,32.53-54,54.77-89.6,69.84ZM212.91,469.32C172,455,145.72,425.22,124.36,386.64c8.87,0,17.28-.05,25.43-.05,9.85,0,19.33.07,28.8.36,1.91.06,4.68,4.18,5.38,6.86,6.84,26.12,14.9,51.73,28.94,75.51Zm-53.54-11.39C122.88,441.86,94,419,68.72,386.65c6.74,0,12.8,0,18.53,0,5.9,0,11.43,0,17,.19,1.67,0,3.84,1.73,4.82,3.27,7.54,11.84,14.12,24.35,22.41,35.61,8,10.93,17.74,20.62,27.93,32.25Zm126.55,11.69c3-5.44,6.17-9.79,8-14.64,7.48-20.3,14.45-40.78,21.88-61.1,1-2.7,3.48-6.84,5.38-6.9,9.49-.29,19-.35,28.68-.35,8,0,16.15,0,24.53,0-14.12,35.57-57.86,76.66-88.43,82.95Zm15.66-82.07c-7.54,28.43-14,56.56-33.31,79.1-5.81,6.76-12.13,10.14-18.43,10.14-6.55,0-13.07-3.67-18.92-11a114.3,114.3,0,0,1-16.19-27.53c-6.56-16-11.47-32.72-17.61-50.72Z"/><path class="cls-1" d="M250.57,8c134.33.44,241.89,108.76,241.56,243.27C491.79,384.48,382.61,492.53,248.88,492S7.31,382.82,7.88,249.12A241.63,241.63,0,0,1,250.57,8Zm66.51,251-2.85-.8a5,5,0,0,0-1.64-.66c-40.69-.11-81.37-.12-122.06-.32-5.63,0-6.77,2.85-6.33,7.49,3.19,33.45,6.46,66.9,9.51,100.36.54,6,4,6.41,8.77,6.38,26.61-.12,53.23,0,79.85,0,22.59,0,23.57.12,26.32-22.19C312.35,319.26,314.35,289.09,317.08,259Zm-2.69-16.89c.58-1.45,1-2,1-2.55-3.09-35.34-6.11-70.68-9.66-106-.2-2-4.86-5.08-7.48-5.11-32.15-.35-64.31-.17-96.47-.32-4.68,0-7.49,1-8,6.24-3.11,34.42-6.39,68.82-9.53,103.23-.12,1.37.56,2.81.93,4.48ZM94.05,257.91a12.24,12.24,0,0,0-1,3.11,276.68,276.68,0,0,0,22.42,106.24c.76,1.79,3.39,3.94,5.17,4,19.22.29,38.45.18,57,.18C174.27,333,171,295.61,167.7,257.91Zm83.63-129.66c-17.39,0-35.38.2-53.36-.13-5.45-.1-8,1.78-10,6.81A293,293,0,0,0,93,233.11c-.13,2.9,0,5.8,0,8.84h74.66C171,204,174.31,166.59,177.68,128.25Zm229.5,129.1c-24.8,0-48.29-.14-71.76.31-1.66,0-4.45,4.33-4.64,6.8-.94,12.19-.67,24.48-1.78,36.64-2.12,23.08-4.89,46.1-7.5,70.23,19.46,0,39,.14,58.44-.23,1.8,0,4.3-3,5.18-5.14,3.05-7.33,5.81-14.8,8.15-22.38A303.58,303.58,0,0,0,407.18,257.35Zm-.7-15.28c2.09-22.74-7.77-73-18.13-101.46-3.69-10.13-8.77-13.49-19.15-12.57-10.92,1-22,.21-33,.21h-14.1c3.5,38.81,6.87,76.12,10.27,113.82ZM301.58,387.55H197.12c6.14,18,11,34.7,17.61,50.72a114.3,114.3,0,0,0,16.19,27.53c11.47,14.36,25.5,14.64,37.35.85C287.62,444.11,294,416,301.58,387.55ZM301.69,113c-7.06-27.6-13.52-54-30.39-76.2-14.09-18.52-30.41-18.89-42.84.72-9.68,15.29-16.1,32.73-23.11,49.56-3.31,7.94-4.6,16.7-7,25.92ZM77,258H23.83c-2.3,28.82,15.75,90.1,32.38,110.07a9.21,9.21,0,0,0,6,3.19c12.19.29,24.39.14,38.06.14A350.64,350.64,0,0,1,77,258ZM400.4,371.41c11.21,0,21.62-.44,32,.15,7.06.4,11-2,14.51-8.25a235.7,235.7,0,0,0,26-69.39c2.33-11.76,2.91-23.87,4.38-36.61-16.89,0-31.57.37-46.23-.16-7.11-.26-8.29,2.62-9,9-2.39,20.64-4.93,41.33-8.93,61.71C410.27,342.13,405,355.94,400.4,371.41Zm76.23-129.23c-.91-40.79-12.76-77.22-33.32-111a7.27,7.27,0,0,0-5.26-2.75c-12.41-.23-24.83-.12-38.82-.12,15.43,37.33,21.81,75.1,23.6,113.89Zm-399.44,0c1.08-39.42,9.26-76.74,22.86-113.94-12.41,0-23.11.37-33.76-.14-6-.29-9.38,1.85-12.37,7A233.38,233.38,0,0,0,25.48,215c-1.47,8.83-1.73,17.86-2.58,27.16ZM374.35,386.67c-18.54,0-35.88-.22-53.21.31-1.9.06-4.4,4.2-5.38,6.9-7.43,20.32-14.4,40.8-21.88,61.1-1.79,4.85-4.95,9.2-8,14.64C316.49,463.33,360.23,422.24,374.35,386.67ZM212.91,469.32c-14-23.78-22.1-49.39-28.94-75.51-.7-2.68-3.47-6.8-5.38-6.86-17.32-.53-34.66-.31-54.23-.31C145.72,425.22,172,455,212.91,469.32Zm161-355.89C364.13,85,322,37.82,285.22,30.1c16,24.56,24.71,51,31.18,78.38.48,2,4,4.68,6.22,4.73C339.4,113.6,356.19,113.43,373.86,113.43Zm-247.56,0c17.65,0,35,.14,52.27-.23,1.7,0,4.3-3.06,4.85-5.12,7.16-26.87,15-53.45,30.93-77.4C182.89,34.94,136.68,81.9,126.3,113.41ZM68.72,386.65C94,419,122.88,441.86,159.37,457.93c-10.19-11.63-19.9-21.32-27.93-32.25-8.29-11.26-14.87-23.77-22.41-35.61-1-1.54-3.15-3.23-4.82-3.27C93.32,386.51,82.41,386.65,68.72,386.65Zm1.65-273.18c10.94,0,20.65-.29,30.32.12,5,.21,7.61-1.65,9.82-6.07a215.15,215.15,0,0,1,43.17-58.75c1.29-1.25,2.18-2.91,3.91-5.26C129.47,52.69,81.3,91.16,70.37,113.47Zm360.92-.07c-25.08-32.16-53.86-55-89.13-69.65a252.41,252.41,0,0,1,48.75,66,7.79,7.79,0,0,0,5.6,3.51C407.12,113.58,417.75,113.4,431.29,113.4ZM431,386.6c-12,0-21.7.26-31.39-.1-5.37-.2-8,1.87-10.48,6.64a211.91,211.91,0,0,1-43.59,58.56,62.42,62.42,0,0,0-4.14,4.74C376.92,441.37,406.39,419.13,431,386.6Z"/></svg>